<svg xmlns="http://www.w3.org/2000/svg" xmlns:xlink="http://www.w3.org/1999/xlink" width="360" height="362" version="1.1" viewBox="0 0 360 362"><title>Group 2</title><desc>Created with Sketch.</desc><g id="Page-1" fill="none" fill-rule="evenodd" stroke="none" stroke-width="1"><g id="play/ic_launcher_APP" transform="translate(-2.000000, -2.000000)"><g id="Group-2" transform="translate(4.000000, 3.000000)"><rect id="Rectangle-2" width="32.544" height="7.848" x="325.388" y="166.045" fill="#AEE0F1" opacity=".91" transform="translate(341.660063, 169.968744) rotate(-29.000000) translate(-341.660063, -169.968744)"/><rect id="Rectangle-2" width="32.544" height="7.848" x="121.292" y="33.087" fill="#AEE0F1" opacity=".84" transform="translate(137.563456, 37.011251) rotate(-75.000000) translate(-137.563456, -37.011251)"/><rect id="Rectangle-2" width="35.595" height="7.848" x="-1.06" y="289.192" fill="#AEE0F1" opacity=".92" transform="translate(16.737051, 293.116054) rotate(-62.000000) translate(-16.737051, -293.116054)"/><rect id="Rectangle-2" width="26.442" height="5.886" x="65.401" y="88.077" fill="#AEE0F1" opacity=".89" transform="translate(78.621729, 91.019999) rotate(-8.000000) translate(-78.621729, -91.019999)"/><rect id="Rectangle-2" width="33.306" height="7.414" x="263.572" y="291.131" fill="#AEE0F1" opacity=".89" transform="translate(280.224351, 294.838000) rotate(-8.000000) translate(-280.224351, -294.838000)"/><ellipse id="Oval" cx="344.28" cy="335.031" stroke="#D96666" stroke-width="4" opacity=".73" rx="10.17" ry="9.81" transform="translate(344.280357, 335.031152) rotate(-357.000000) translate(-344.280357, -335.031152)"/><ellipse id="Oval" cx="344.19" cy="13.684" stroke="#D96666" stroke-width="4" opacity=".9" rx="12.204" ry="11.772" transform="translate(344.189691, 13.683744) rotate(-276.000000) translate(-344.189691, -13.683744)"/><ellipse id="Oval" cx="292.087" cy="207.182" stroke="#B9597B" stroke-width="4" opacity=".9" rx="12.204" ry="11.772" transform="translate(292.086994, 207.182316) rotate(-276.000000) translate(-292.086994, -207.182316)"/><ellipse id="Oval" cx="196.745" cy="248.557" stroke="#D96666" stroke-width="4" opacity=".71" rx="9.661" ry="9.32" transform="translate(196.744739, 248.557136) rotate(-239.000000) translate(-196.744739, -248.557136)"/><ellipse id="Oval" cx="228.448" cy="73.754" stroke="#D96666" stroke-width="4" opacity=".73" rx="12.712" ry="12.263" transform="translate(228.447749, 73.754361) rotate(-23.000000) translate(-228.447749, -73.754361)"/><ellipse id="Oval" cx="165.264" cy="329.596" stroke="#D96666" stroke-width="4" opacity=".87" rx="10.678" ry="10.301" transform="translate(165.263907, 329.595577) rotate(-145.000000) translate(-165.263907, -329.595577)"/><ellipse id="Oval" cx="88.697" cy="206.21" stroke="#D96666" stroke-width="4" opacity=".88" rx="14.746" ry="14.225" transform="translate(88.696973, 206.210366) rotate(-12.000000) translate(-88.696973, -206.210366)"/><ellipse id="Oval" cx="152.824" cy="144.346" stroke="#D96666" stroke-width="4" opacity=".8" rx="11.695" ry="11.282" transform="translate(152.823905, 144.345519) rotate(-289.000000) translate(-152.823905, -144.345519)"/><ellipse id="Oval" cx="29.787" cy="345.59" stroke="#D96666" stroke-width="4" opacity=".9" rx="12.712" ry="12.263" transform="translate(29.786925, 345.589707) rotate(-292.000000) translate(-29.786925, -345.589707)"/><ellipse id="Oval" cx="12.785" cy="98.941" stroke="#B9597B" stroke-width="4" opacity=".84" rx="12.712" ry="12.263" transform="translate(12.785105, 98.941343) rotate(-271.000000) translate(-12.785105, -98.941343)"/><g id="Zigzag" stroke="#65BF94" stroke-linecap="square" stroke-width="4" opacity=".9" transform="translate(309.052251, 306.283448) rotate(-234.000000) translate(-309.052251, -306.283448) translate(298.373781, 294.020575)"><polyline id="Line" points="4.295 22.596 4.295 13.618 14.705 10.778 16.481 1.923" transform="translate(10.388139, 12.259615) rotate(29.000000) translate(-10.388139, -12.259615)"/></g><g id="Zigzag" stroke="#65BF94" stroke-linecap="square" stroke-width="4" opacity=".98" transform="translate(258.964376, 20.321280) rotate(-58.000000) translate(-258.964376, -20.321280) translate(249.811402, 9.529952)"><polyline id="Line" points="3.682 19.885 3.682 11.984 12.605 9.485 14.126 1.692" transform="translate(8.904119, 10.788462) rotate(29.000000) translate(-8.904119, -10.788462)"/></g><g id="Zigzag" stroke="#65BF94" stroke-linecap="square" stroke-width="4" opacity=".91" transform="translate(141.113836, 253.373646) rotate(-356.000000) translate(-141.113836, -253.373646) translate(127.384374, 237.677169)"><polyline id="Line" points="5.523 28.019 5.523 16.887 18.907 13.365 21.19 2.385" transform="translate(13.356179, 15.201923) rotate(29.000000) translate(-13.356179, -15.201923)"/></g><g id="Zigzag" stroke="#65BF94" stroke-linecap="square" stroke-width="4" opacity=".91" transform="translate(36.205029, 188.262306) rotate(-356.000000) translate(-36.205029, -188.262306) translate(22.475568, 172.565829)"><polyline id="Line" points="5.523 28.019 5.523 16.887 18.907 13.365 21.19 2.385" transform="translate(13.356179, 15.201923) rotate(29.000000) translate(-13.356179, -15.201923)"/></g><g id="Zigzag" stroke="#65BF94" stroke-linecap="square" stroke-width="4" opacity=".91" transform="translate(308.760270, 96.045504) rotate(-386.000000) translate(-308.760270, -96.045504) translate(295.030808, 80.349027)"><polyline id="Line" points="5.523 28.019 5.523 16.887 18.907 13.365 21.19 2.385" transform="translate(13.356179, 15.201923) rotate(29.000000) translate(-13.356179, -15.201923)"/></g><g id="Zigzag" stroke="#65BF94" stroke-linecap="square" stroke-width="4" opacity=".98" transform="translate(45.900068, 50.249698) rotate(-202.000000) translate(-45.900068, -50.249698) translate(36.238594, 38.967855)"><polyline id="Line" points="3.886 20.788 3.886 12.529 13.305 9.916 14.911 1.769" transform="translate(9.398793, 11.278846) rotate(29.000000) translate(-9.398793, -11.278846)"/></g></g></g></g></svg>